<?xml version="1.0" encoding="UTF-8"?>
<svg width="143px" height="177px" viewBox="0 0 143 177" version="1.1" xmlns="http://www.w3.org/2000/svg" xmlns:xlink="http://www.w3.org/1999/xlink">
    <!-- Generator: Sketch 46.2 (44496) - http://www.bohemiancoding.com/sketch -->
    <title>pin_fnaim</title>
    <desc>Created with Sketch.</desc>
    <defs>
        <linearGradient x1="0%" y1="0%" x2="100%" y2="100%" id="linearGradient-1">
            <stop stop-color="#FAC800" offset="0%"></stop>
            <stop stop-color="#FFFF00" offset="100%"></stop>
        </linearGradient>
        <path d="M82.4502337,49.700358 L148.078624,49.700358 C150.840048,49.700358 153.078624,51.9389342 153.078624,54.700358 L153.078624,147.700358 C153.078624,150.461782 150.840048,152.700358 148.078624,152.700358 L55.0786244,152.700358 C52.3172006,152.700358 50.0786244,150.461782 50.0786244,147.700358 L50.0786244,85.0345188 L26.526136,27.00313 L82.4502337,49.700358 Z" id="path-2"></path>
        <filter x="-2.0%" y="-2.0%" width="104.0%" height="104.0%" filterUnits="objectBoundingBox" id="filter-3">
            <feGaussianBlur stdDeviation="1.5" in="SourceAlpha" result="shadowBlurInner1"></feGaussianBlur>
            <feOffset dx="2" dy="2" in="shadowBlurInner1" result="shadowOffsetInner1"></feOffset>
            <feComposite in="shadowOffsetInner1" in2="SourceAlpha" operator="arithmetic" k2="-1" k3="1" result="shadowInnerInner1"></feComposite>
            <feColorMatrix values="0 0 0 0 0.960784314   0 0 0 0 0.71372549   0 0 0 0 0  0 0 0 1 0" type="matrix" in="shadowInnerInner1"></feColorMatrix>
        </filter>
    </defs>
    <g id="Page-1" stroke="none" stroke-width="1" fill="none" fill-rule="evenodd">
        <g id="iPhone-7" transform="translate(-142.000000, -251.000000)">
            <g id="pin_fnaim" transform="translate(124.000000, 249.000000)">
                <g id="Rectangle" transform="translate(89.802380, 89.851744) rotate(-135.000000) translate(-89.802380, -89.851744) ">
                    <use fill="url(#linearGradient-1)" fill-rule="evenodd" xlink:href="#path-2"></use>
                    <use fill="black" fill-opacity="1" filter="url(#filter-3)" xlink:href="#path-2"></use>
                </g>
                <path d="M102.631579,90.4133982 C102.631579,92.1625643 104.049885,93.5805435 105.786179,93.5805435 L108.950664,93.5805435 C110.692901,93.5805435 112.105263,92.1623134 112.105263,90.4371828 L112.105263,65.1449568 C112.105263,63.4089266 111.098005,60.9943379 109.864044,59.7603766 L92.2412195,42.1375524 C91.0034282,40.8997611 88.9927418,40.9035912 87.7587805,42.1375524 L70.1359563,59.7603766 C68.898165,60.998168 67.8947368,63.4198262 67.8947368,65.1449568 L67.8947368,90.4371828 C67.8947368,92.173213 69.3130431,93.5805435 71.0493365,93.5805435 L74.2138214,93.5805435 C75.9560586,93.5805435 77.3684211,92.1641328 77.3684211,90.4133982 L77.3684211,79.3621684 C77.3684211,75.0063604 80.9077555,71.4752803 85.2579249,71.4752803 L94.7420751,71.4752803 C99.0993278,71.4752803 102.631579,75.0023679 102.631579,79.3621684 L102.631579,90.4133982 Z M94.7368421,82.5371625 C94.7368421,80.7879964 93.3185359,79.3700172 91.5822425,79.3700172 L88.4177575,79.3700172 C86.6755203,79.3700172 85.2631579,80.7864279 85.2631579,82.5371625 L85.2631579,93.5883923 C85.2631579,97.9442003 81.7238234,101.47528 77.373654,101.47528 L67.8895039,101.47528 C63.5322512,101.47528 60,97.9410113 60,93.5855977 L60,66.6211717 C60,62.2638203 62.5061833,56.2253058 65.5724623,53.1590268 L84.4275377,34.3039513 C87.5051237,31.2263653 92.5061833,31.2376723 95.5724623,34.3039513 L114.427538,53.1590268 C117.505124,56.2366128 120,62.2657581 120,66.6211717 L120,93.5855977 C120,97.9429491 116.460666,101.47528 112.110496,101.47528 L102.626346,101.47528 C98.2690933,101.47528 94.7368421,97.9481928 94.7368421,93.5883923 L94.7368421,82.5371625 Z" id="Shape" fill="#000000" fill-rule="nonzero"></path>
            </g>
        </g>
    </g>
</svg>